<svg xmlns="http://www.w3.org/2000/svg" viewBox="0 0 160 160">
  <defs>
    <linearGradient id="zoe-bg" x1="0" y1="0" x2="1" y2="1">
      <stop offset="0%" stop-color="#fef3c7"/>
      <stop offset="100%" stop-color="#fecdd3"/>
    </linearGradient>
  </defs>
  <rect width="160" height="160" rx="32" fill="url(#zoe-bg)"/>
  <circle cx="80" cy="68" r="34" fill="#fde68a"/>
  <path d="M42 146c8-28 22-44 38-44 14 0 28 14 38 44" fill="#9d174d"/>
  <path d="M46 68c6-28 19-40 34-40 20 0 38 18 38 40-8-8-20-12-38-12-14 0-24 3-34 12Z" fill="#9d174d"/>
  <circle cx="68" cy="68" r="4" fill="#831843"/>
  <circle cx="92" cy="68" r="4" fill="#831843"/>
  <path d="M72 84c3 5 13 5 16 0" stroke="#db2777" stroke-width="4" stroke-linecap="round" fill="none"/>
</svg>
