<svg xmlns="http://www.w3.org/2000/svg" viewBox="0 0 160 160">
  <defs>
    <linearGradient id="jasper-bg" x1="0" y1="0" x2="1" y2="1">
      <stop offset="0%" stop-color="#99f6e4"/>
      <stop offset="100%" stop-color="#60a5fa"/>
    </linearGradient>
  </defs>
  <rect width="160" height="160" rx="32" fill="url(#jasper-bg)"/>
  <circle cx="80" cy="66" r="34" fill="#fde68a"/>
  <path d="M46 146c8-30 22-44 34-44 16 0 30 16 34 44" fill="#164e63"/>
  <path d="M50 60c8-22 22-34 40-34 16 0 30 8 38 26-8-4-18-6-28-6-18 0-34 6-50 14Z" fill="#0f172a"/>
  <circle cx="68" cy="68" r="4" fill="#0f172a"/>
  <circle cx="92" cy="68" r="4" fill="#0f172a"/>
  <path d="M72 84c3 3 13 3 16 0" stroke="#0f766e" stroke-width="4" stroke-linecap="round" fill="none"/>
</svg>
