<svg xmlns="http://www.w3.org/2000/svg" viewBox="0 0 160 160">
  <defs>
    <linearGradient id="aneka-bg" x1="0" y1="0" x2="1" y2="1">
      <stop offset="0%" stop-color="#fbcfe8"/>
      <stop offset="100%" stop-color="#fdba74"/>
    </linearGradient>
  </defs>
  <rect width="160" height="160" rx="32" fill="url(#aneka-bg)"/>
  <circle cx="80" cy="68" r="34" fill="#fde68a"/>
  <path d="M42 146c8-28 22-46 38-46s30 18 38 46" fill="#7c2d12"/>
  <path d="M52 70c0-28 15-42 28-42 21 0 36 18 36 42-10-10-24-18-36-18-10 0-19 5-28 18Z" fill="#7c2d12"/>
  <circle cx="68" cy="68" r="4" fill="#7c2d12"/>
  <circle cx="92" cy="68" r="4" fill="#7c2d12"/>
  <path d="M70 84c5 4 15 4 20 0" stroke="#be123c" stroke-width="4" stroke-linecap="round" fill="none"/>
</svg>
