<svg xmlns="http://www.w3.org/2000/svg" viewBox="0 0 160 160">
  <defs>
    <linearGradient id="milo-bg" x1="0" y1="0" x2="1" y2="1">
      <stop offset="0%" stop-color="#ddd6fe"/>
      <stop offset="100%" stop-color="#f9a8d4"/>
    </linearGradient>
  </defs>
  <rect width="160" height="160" rx="32" fill="url(#milo-bg)"/>
  <circle cx="80" cy="68" r="34" fill="#fde68a"/>
  <path d="M44 146c8-30 22-44 36-44s28 14 36 44" fill="#312e81"/>
  <path d="M48 58c8-24 24-34 40-34 14 0 25 7 34 22l-10 4c-8-5-18-8-28-8s-22 4-36 16Z" fill="#312e81"/>
  <circle cx="68" cy="70" r="4" fill="#312e81"/>
  <circle cx="92" cy="70" r="4" fill="#312e81"/>
  <path d="M70 86c4 5 16 5 20 0" stroke="#7c3aed" stroke-width="4" stroke-linecap="round" fill="none"/>
</svg>
